<?xml version="1.0" encoding="UTF-8"?>
<svg xmlns="http://www.w3.org/2000/svg" viewBox="0 0 532.79 296.15">
  <defs>
    <style>
      .cls-1 {
        font-family: JosefinSans-Bold, 'Josefin Sans';
        font-size: 59.95px;
        font-weight: 700;
      }

      .cls-2, .cls-3, .cls-4, .cls-5, .cls-6, .cls-7 {
        stroke-miterlimit: 10;
      }

      .cls-2, .cls-4, .cls-5, .cls-7 {
        stroke: #000;
      }

      .cls-3, .cls-5 {
        fill: none;
      }

      .cls-3, .cls-6 {
        stroke: #835739;
        stroke-width: 4px;
      }

      .cls-4, .cls-6 {
        fill: #e9d0ad;
      }

      .cls-5 {
        stroke-width: 2px;
      }

      .cls-7 {
        fill: #8c6646;
      }

      .cls-8 {
        letter-spacing: 0em;
      }

      .cls-9 {
        letter-spacing: .03em;
      }
    </style>
  </defs>
  <g>
    <path class="cls-4" d="m177.3,92.56c12.44,2.51-21.35-9.32-21.35-9.32"/>
    <path class="cls-4" d="m374.8,161.02c3.96,2.24,13.27,6.78,25.22,5.74,11.68-1.02,18.67-7.73,26.35-12.1,8-4.55,18.02-18.64,20.23-25.23,1.25-3.73,5.26-17.45-2.48-24.85-5.5-5.26-13.67-4.7-16.51-4.47-15.81,1.3-24.85,16-26.19,18.27,3.68-10.36,7.37-20.71,11.05-31.07,3.73-2.68,13.72-9.07,27.3-8.48,4.66.2,16.57.79,24.09,9.63,4.78,5.61,5.51,12.02,6.26,18.69.37,3.27.92,10.89-1.51,20.01-5.55,20.76-21.89,33.26-28.44,37.36-5.83,3.65-16.03,11.56-32.02,14.56-21.41,4.02-38.67-2.67-45.22-5.6,3.96-4.16,7.91-8.31,11.87-12.47Z"/>
    <ellipse class="cls-7" cx="254.97" cy="52.89" rx="161.72" ry="52.39"/>
    <path class="cls-4" d="m376.51,86.93l-30.75-66.93-38.65,81.98c-5.9.65-11.94,1.19-18.12,1.62-13.05,1.37-22.76,1.86-34.02,1.17-21.62,0-42.24-1.38-61.09-3.87l-40.34-80.87-29.67,63.02c-19.26-8.62-30.62-19.22-30.62-30.68.08,12,2.5,70.23,48.98,118.4,29.14,30.2,68.9,48.79,112.74,48.79,78.23,0,138.06-65.24,155.6-125.11,4.88-16.64,6.04-31.39,6.12-42.08,0,13.24-15.17,25.33-40.17,34.55Z"/>
    <circle class="cls-6" cx="180.06" cy="136.21" r="46.46"/>
    <circle class="cls-6" cx="330.83" cy="125.26" r="46.46"/>
    <path class="cls-3" d="m225.78,136.21c2.1-2.62,5.56-6.33,10.69-9.59,3.14-1.99,11.02-6.86,21.85-6.85,14.06.02,23.59,8.25,26.04,10.5"/>
    <circle class="cls-2" cx="184.5" cy="141.6" r="5.39"/>
    <circle class="cls-2" cx="330.83" cy="134.96" r="5.39"/>
    <path class="cls-5" d="m283.48,148.69s3.32,15.65-3.87,17.69c-5.8,1.65-8.59,2.69-15.03.55l-9.4-9.4c.63,13.79-10.7,14.86-18.15,14.65-6.45-.17-11.34-11.61-11.34-11.61"/>
  </g>
  <g id="animalcafely">
    <text class="cls-1" transform="translate(54.25 282.18) scale(1.13 1)"><tspan class="cls-9" x="0" y="0">animalca</tspan><tspan class="cls-8" x="273.5" y="0">f</tspan><tspan class="cls-9" x="299.4" y="0">ély</tspan></text>
  </g>
</svg>